<?xml version="1.0" encoding="UTF-8"?>
<svg id="Layer_1" data-name="Layer 1" xmlns="http://www.w3.org/2000/svg" viewBox="0 0 79.66 78.86">
  <defs>
    <style>
      .cls-1 {
        fill: none;
        stroke-linecap: round;
        stroke-width: 2.16px;
      }

      .cls-1, .cls-2 {
        stroke: #f7953a;
        stroke-miterlimit: 10;
      }

      .cls-2 {
        fill: #f7953a;
        stroke-width: .54px;
      }
    </style>
  </defs>
  <path class="cls-1" d="M78.59,77.78c-10.92-.66-20.36-10.38-21.08-21.72"/>
  <path class="cls-1" d="M6.83,8.73c11.43-10.45,30.35-10.16,42.24.65"/>
  <path class="cls-2" d="M30.11,36.26c-3.8-1.21-8.6-3.07-13.12-5.88-9.63-5.97-12.16-12.57-12.96-15.67,0,0-11.19,17.64,16.06,27.79,3.8,1.21,8.6,3.07,13.12,5.88,9.63,5.97,12.16,12.57,12.96,15.67,0,0,11.19-17.64-16.06-27.79Z"/>
  <path class="cls-1" d="M43.32,69.89c-11.38,10.5-30.29,10.29-42.25-.47"/>
  <path class="cls-2" d="M57.14,49c.56-2.39,4.84-22.21-.64-45.04-.88,4.12-1.66,9.11-2,14.82-.78,12.9,1.04,23.51,2.65,30.22Z"/>
</svg>